<mxfile host="Electron" modified="2023-11-15T16:11:31.513Z" agent="Mozilla/5.0 (Windows NT 10.0; Win64; x64) AppleWebKit/537.36 (KHTML, like Gecko) draw.io/21.2.1 Chrome/112.0.5615.87 Electron/24.1.2 Safari/537.36" etag="tZXxVbK2g6sXCrINucyA" version="21.2.1" type="device">
  <diagram name="Page-1" id="13e1069c-82ec-6db2-03f1-153e76fe0fe0">
    <mxGraphModel dx="1139" dy="576" grid="1" gridSize="10" guides="1" tooltips="1" connect="1" arrows="1" fold="1" page="1" pageScale="1" pageWidth="1100" pageHeight="850" background="none" math="0" shadow="0">
      <root>
        <mxCell id="0" />
        <mxCell id="1" parent="0" />
        <mxCell id="fztPeTmldJCE3OXhj7iw-2" value="" style="shape=umlLifeline;perimeter=lifelinePerimeter;whiteSpace=wrap;html=1;container=1;dropTarget=0;collapsible=0;recursiveResize=0;outlineConnect=0;portConstraint=eastwest;newEdgeStyle={&quot;edgeStyle&quot;:&quot;elbowEdgeStyle&quot;,&quot;elbow&quot;:&quot;vertical&quot;,&quot;curved&quot;:0,&quot;rounded&quot;:0};participant=umlActor;" vertex="1" parent="1">
          <mxGeometry x="370" y="150" width="60" height="730" as="geometry" />
        </mxCell>
        <mxCell id="fztPeTmldJCE3OXhj7iw-8" value="" style="html=1;points=[];perimeter=orthogonalPerimeter;outlineConnect=0;targetShapes=umlLifeline;portConstraint=eastwest;newEdgeStyle={&quot;edgeStyle&quot;:&quot;elbowEdgeStyle&quot;,&quot;elbow&quot;:&quot;vertical&quot;,&quot;curved&quot;:0,&quot;rounded&quot;:0};" vertex="1" parent="fztPeTmldJCE3OXhj7iw-2">
          <mxGeometry x="25" y="100" width="10" height="350" as="geometry" />
        </mxCell>
        <mxCell id="fztPeTmldJCE3OXhj7iw-5" value="app:InstaPayApp" style="shape=umlLifeline;perimeter=lifelinePerimeter;whiteSpace=wrap;html=1;container=1;dropTarget=0;collapsible=0;recursiveResize=0;outlineConnect=0;portConstraint=eastwest;newEdgeStyle={&quot;edgeStyle&quot;:&quot;elbowEdgeStyle&quot;,&quot;elbow&quot;:&quot;vertical&quot;,&quot;curved&quot;:0,&quot;rounded&quot;:0};" vertex="1" parent="1">
          <mxGeometry x="510" y="150" width="100" height="730" as="geometry" />
        </mxCell>
        <mxCell id="fztPeTmldJCE3OXhj7iw-12" value="" style="html=1;points=[];perimeter=orthogonalPerimeter;outlineConnect=0;targetShapes=umlLifeline;portConstraint=eastwest;newEdgeStyle={&quot;edgeStyle&quot;:&quot;elbowEdgeStyle&quot;,&quot;elbow&quot;:&quot;vertical&quot;,&quot;curved&quot;:0,&quot;rounded&quot;:0};" vertex="1" parent="fztPeTmldJCE3OXhj7iw-5">
          <mxGeometry x="45" y="100" width="10" height="370" as="geometry" />
        </mxCell>
        <mxCell id="fztPeTmldJCE3OXhj7iw-13" value="&lt;font style=&quot;font-size: 14px;&quot;&gt;run()&lt;/font&gt;" style="html=1;verticalAlign=bottom;endArrow=block;edgeStyle=elbowEdgeStyle;elbow=vertical;curved=0;rounded=0;" edge="1" parent="1" target="fztPeTmldJCE3OXhj7iw-12">
          <mxGeometry width="80" relative="1" as="geometry">
            <mxPoint x="410" y="320" as="sourcePoint" />
            <mxPoint x="490" y="320" as="targetPoint" />
            <Array as="points" />
          </mxGeometry>
        </mxCell>
        <mxCell id="fztPeTmldJCE3OXhj7iw-15" value="login:Login" style="shape=umlLifeline;perimeter=lifelinePerimeter;whiteSpace=wrap;html=1;container=1;dropTarget=0;collapsible=0;recursiveResize=0;outlineConnect=0;portConstraint=eastwest;newEdgeStyle={&quot;edgeStyle&quot;:&quot;elbowEdgeStyle&quot;,&quot;elbow&quot;:&quot;vertical&quot;,&quot;curved&quot;:0,&quot;rounded&quot;:0};" vertex="1" parent="1">
          <mxGeometry x="800" y="340" width="110" height="360" as="geometry" />
        </mxCell>
        <mxCell id="fztPeTmldJCE3OXhj7iw-26" value="" style="html=1;points=[];perimeter=orthogonalPerimeter;outlineConnect=0;targetShapes=umlLifeline;portConstraint=eastwest;newEdgeStyle={&quot;edgeStyle&quot;:&quot;elbowEdgeStyle&quot;,&quot;elbow&quot;:&quot;vertical&quot;,&quot;curved&quot;:0,&quot;rounded&quot;:0};" vertex="1" parent="fztPeTmldJCE3OXhj7iw-15">
          <mxGeometry x="50" y="70" width="10" height="210" as="geometry" />
        </mxCell>
        <mxCell id="fztPeTmldJCE3OXhj7iw-42" value="" style="shape=umlDestroy;whiteSpace=wrap;html=1;strokeWidth=3;targetShapes=umlLifeline;" vertex="1" parent="fztPeTmldJCE3OXhj7iw-15">
          <mxGeometry x="40" y="340" width="30" height="30" as="geometry" />
        </mxCell>
        <mxCell id="fztPeTmldJCE3OXhj7iw-25" value="&lt;font size=&quot;3&quot;&gt;loginInterface()&lt;/font&gt;" style="endArrow=open;endSize=12;dashed=1;html=1;rounded=0;" edge="1" parent="1" source="fztPeTmldJCE3OXhj7iw-5">
          <mxGeometry width="160" relative="1" as="geometry">
            <mxPoint x="580" y="360" as="sourcePoint" />
            <mxPoint x="800" y="360" as="targetPoint" />
          </mxGeometry>
        </mxCell>
        <mxCell id="fztPeTmldJCE3OXhj7iw-27" value="&lt;font style=&quot;font-size: 14px;&quot;&gt;login(String username, String password)&lt;/font&gt;" style="endArrow=open;endSize=12;dashed=1;html=1;rounded=0;entryX=0;entryY=0.1;entryDx=0;entryDy=0;entryPerimeter=0;" edge="1" parent="1" source="fztPeTmldJCE3OXhj7iw-15" target="fztPeTmldJCE3OXhj7iw-28">
          <mxGeometry x="-0.1682" y="18" width="160" relative="1" as="geometry">
            <mxPoint x="880" y="440" as="sourcePoint" />
            <mxPoint x="1040" y="440" as="targetPoint" />
            <mxPoint x="-1" as="offset" />
          </mxGeometry>
        </mxCell>
        <mxCell id="fztPeTmldJCE3OXhj7iw-28" value="accountDB:InstaPayAccountDB" style="shape=umlLifeline;perimeter=lifelinePerimeter;whiteSpace=wrap;html=1;container=1;dropTarget=0;collapsible=0;recursiveResize=0;outlineConnect=0;portConstraint=eastwest;newEdgeStyle={&quot;edgeStyle&quot;:&quot;elbowEdgeStyle&quot;,&quot;elbow&quot;:&quot;vertical&quot;,&quot;curved&quot;:0,&quot;rounded&quot;:0};" vertex="1" parent="1">
          <mxGeometry x="1180" y="410" width="180" height="270" as="geometry" />
        </mxCell>
        <mxCell id="fztPeTmldJCE3OXhj7iw-30" value="" style="html=1;points=[];perimeter=orthogonalPerimeter;outlineConnect=0;targetShapes=umlLifeline;portConstraint=eastwest;newEdgeStyle={&quot;edgeStyle&quot;:&quot;elbowEdgeStyle&quot;,&quot;elbow&quot;:&quot;vertical&quot;,&quot;curved&quot;:0,&quot;rounded&quot;:0};" vertex="1" parent="fztPeTmldJCE3OXhj7iw-28">
          <mxGeometry x="85" y="70" width="10" height="120" as="geometry" />
        </mxCell>
        <mxCell id="fztPeTmldJCE3OXhj7iw-41" value="" style="shape=umlDestroy;whiteSpace=wrap;html=1;strokeWidth=3;targetShapes=umlLifeline;" vertex="1" parent="fztPeTmldJCE3OXhj7iw-28">
          <mxGeometry x="75" y="250" width="30" height="30" as="geometry" />
        </mxCell>
        <mxCell id="fztPeTmldJCE3OXhj7iw-34" value="&lt;font style=&quot;font-size: 14px;&quot;&gt;&amp;nbsp;loadInstaPayAccount( String username, String password)&lt;/font&gt;" style="html=1;verticalAlign=bottom;endArrow=block;edgeStyle=orthogonalEdgeStyle;elbow=vertical;rounded=0;" edge="1" parent="1">
          <mxGeometry x="0.0909" y="90" width="80" relative="1" as="geometry">
            <mxPoint x="1270" y="490" as="sourcePoint" />
            <mxPoint x="1270" y="530" as="targetPoint" />
            <Array as="points">
              <mxPoint x="1360" y="490" />
            </Array>
            <mxPoint as="offset" />
          </mxGeometry>
        </mxCell>
        <mxCell id="fztPeTmldJCE3OXhj7iw-37" value="account:InstaPayAccount" style="shape=umlLifeline;perimeter=lifelinePerimeter;whiteSpace=wrap;html=1;container=1;dropTarget=0;collapsible=0;recursiveResize=0;outlineConnect=0;portConstraint=eastwest;newEdgeStyle={&quot;edgeStyle&quot;:&quot;elbowEdgeStyle&quot;,&quot;elbow&quot;:&quot;vertical&quot;,&quot;curved&quot;:0,&quot;rounded&quot;:0};participant=umlEntity;" vertex="1" parent="1">
          <mxGeometry x="1440" y="540" width="150" height="340" as="geometry" />
        </mxCell>
        <mxCell id="fztPeTmldJCE3OXhj7iw-38" value="" style="html=1;points=[];perimeter=orthogonalPerimeter;outlineConnect=0;targetShapes=umlLifeline;portConstraint=eastwest;newEdgeStyle={&quot;edgeStyle&quot;:&quot;elbowEdgeStyle&quot;,&quot;elbow&quot;:&quot;vertical&quot;,&quot;curved&quot;:0,&quot;rounded&quot;:0};" vertex="1" parent="fztPeTmldJCE3OXhj7iw-37">
          <mxGeometry x="70" y="100" width="10" height="180" as="geometry" />
        </mxCell>
        <mxCell id="fztPeTmldJCE3OXhj7iw-40" value="return account" style="html=1;verticalAlign=bottom;endArrow=open;dashed=1;endSize=8;edgeStyle=elbowEdgeStyle;elbow=vertical;curved=0;rounded=0;" edge="1" parent="1" target="fztPeTmldJCE3OXhj7iw-5">
          <mxGeometry x="-0.0002" relative="1" as="geometry">
            <mxPoint x="850" y="600" as="sourcePoint" />
            <mxPoint x="770" y="600" as="targetPoint" />
            <mxPoint as="offset" />
          </mxGeometry>
        </mxCell>
        <mxCell id="fztPeTmldJCE3OXhj7iw-44" value="create" style="endArrow=open;endSize=12;dashed=1;html=1;rounded=0;" edge="1" parent="1">
          <mxGeometry width="160" relative="1" as="geometry">
            <mxPoint x="1280" y="560" as="sourcePoint" />
            <mxPoint x="1440" y="560" as="targetPoint" />
            <mxPoint as="offset" />
          </mxGeometry>
        </mxCell>
        <mxCell id="fztPeTmldJCE3OXhj7iw-47" value="return account" style="html=1;verticalAlign=bottom;endArrow=open;dashed=1;endSize=8;edgeStyle=elbowEdgeStyle;elbow=vertical;curved=0;rounded=0;" edge="1" parent="1" target="fztPeTmldJCE3OXhj7iw-15">
          <mxGeometry relative="1" as="geometry">
            <mxPoint x="1260" y="580" as="sourcePoint" />
            <mxPoint x="1180" y="580" as="targetPoint" />
          </mxGeometry>
        </mxCell>
      </root>
    </mxGraphModel>
  </diagram>
</mxfile>
